<?xml version="1.0" encoding="UTF-8"?>
<svg xmlns="http://www.w3.org/2000/svg" xmlns:xlink="http://www.w3.org/1999/xlink" width="12pt" height="10pt" viewBox="0 0 12 10" version="1.1">
<g id="surface1">
<path style=" stroke:none;fill-rule:nonzero;fill:rgb(0%,0%,0%);fill-opacity:1;" d="M 7.238281 4.460938 C 7.273438 4.652344 7.296875 4.839844 7.296875 5.085938 C 7.296875 7.230469 5.917969 8.75 3.839844 8.75 C 1.851562 8.75 0.238281 7.070312 0.238281 5 C 0.238281 2.929688 1.851562 1.25 3.839844 1.25 C 4.8125 1.25 5.621094 1.617188 6.25 2.230469 L 5.273438 3.210938 C 5.007812 2.945312 4.542969 2.632812 3.839844 2.632812 C 2.613281 2.632812 1.609375 3.691406 1.609375 5 C 1.609375 6.308594 2.613281 7.367188 3.839844 7.367188 C 5.265625 7.367188 5.800781 6.300781 5.882812 5.753906 L 3.839844 5.753906 L 3.839844 4.460938 Z M 10.714844 4.589844 L 10.714844 3.5 L 9.664062 3.5 L 9.664062 4.589844 L 8.621094 4.589844 L 8.621094 5.683594 L 9.664062 5.683594 L 9.664062 6.769531 L 10.714844 6.769531 L 10.714844 5.683594 L 11.761719 5.683594 L 11.761719 4.589844 Z M 10.714844 4.589844 "/>
</g>
</svg>
