<svg xmlns="http://www.w3.org/2000/svg" xmlns:xlink="http://www.w3.org/1999/xlink" width="18pt" height="17pt" viewBox="0 0 13 14" version="1.1">
<path stroke="none" fill-rule="nonzero" fill="#a1a1a1" fill-opacity="1" d="M 6.503906 3.855469 C 4.65625 3.855469 3.167969 5.257812 3.167969 6.996094 C 3.167969 8.734375 4.65625 10.140625 6.503906 10.140625 C 8.347656 10.140625 9.835938 8.734375 9.835938 6.996094 C 9.835938 5.257812 8.347656 3.855469 6.503906 3.855469 Z M 6.503906 9.039062 C 5.308594 9.039062 4.335938 8.125 4.335938 6.996094 C 4.335938 5.871094 5.308594 4.953125 6.503906 4.953125 C 7.699219 4.953125 8.671875 5.871094 8.671875 6.996094 C 8.671875 8.125 7.695312 9.039062 6.503906 9.039062 Z M 10.75 3.726562 C 10.75 4.132812 10.402344 4.460938 9.972656 4.460938 C 9.542969 4.460938 9.195312 4.132812 9.195312 3.726562 C 9.195312 3.320312 9.542969 2.996094 9.972656 2.996094 C 10.402344 2.996094 10.75 3.324219 10.75 3.726562 Z M 12.960938 4.46875 C 12.910156 3.488281 12.671875 2.621094 11.910156 1.902344 C 11.148438 1.1875 10.226562 0.960938 9.183594 0.914062 C 8.109375 0.855469 4.890625 0.855469 3.820312 0.914062 C 2.78125 0.960938 1.855469 1.183594 1.09375 1.898438 C 0.332031 2.617188 0.0976562 3.484375 0.0429688 4.46875 C -0.015625 5.480469 -0.015625 8.511719 0.0429688 9.523438 C 0.09375 10.503906 0.332031 11.375 1.09375 12.089844 C 1.855469 12.808594 2.777344 13.03125 3.820312 13.082031 C 4.890625 13.140625 8.109375 13.140625 9.183594 13.082031 C 10.226562 13.035156 11.148438 12.8125 11.910156 12.089844 C 12.667969 11.375 12.90625 10.503906 12.960938 9.523438 C 13.019531 8.511719 13.019531 5.484375 12.960938 4.472656 Z M 11.574219 10.609375 C 11.347656 11.144531 10.90625 11.558594 10.335938 11.773438 C 9.480469 12.09375 7.449219 12.019531 6.503906 12.019531 C 5.558594 12.019531 3.523438 12.089844 2.667969 11.773438 C 2.101562 11.5625 1.664062 11.148438 1.433594 10.609375 C 1.09375 9.804688 1.171875 7.890625 1.171875 6.996094 C 1.171875 6.105469 1.097656 4.1875 1.433594 3.386719 C 1.660156 2.847656 2.097656 2.4375 2.667969 2.21875 C 3.527344 1.902344 5.558594 1.972656 6.503906 1.972656 C 7.449219 1.972656 9.484375 1.902344 10.335938 2.21875 C 10.90625 2.433594 11.34375 2.847656 11.574219 3.386719 C 11.910156 4.191406 11.832031 6.105469 11.832031 6.996094 C 11.832031 7.890625 11.910156 9.804688 11.574219 10.609375 Z M 11.574219 10.609375 "/>
</svg>
