<svg xmlns="http://www.w3.org/2000/svg" xmlns:xlink="http://www.w3.org/1999/xlink" width="35pt" height="35pt" viewBox="0 0 35 35" version="1.1">
<g id="surface1">
<path style=" stroke:none;fill-rule:nonzero;fill:#a3bbc8;fill-opacity:1;" d="M 12.03125 14.765625 L 22.96875 14.765625 C 23.574219 14.765625 24.0625 14.277344 24.0625 13.671875 L 24.0625 12.578125 C 24.0625 11.972656 23.574219 11.484375 22.96875 11.484375 L 12.03125 11.484375 C 11.425781 11.484375 10.9375 11.972656 10.9375 12.578125 L 10.9375 13.671875 C 10.9375 14.277344 11.425781 14.765625 12.03125 14.765625 Z M 10.9375 20.234375 C 10.9375 20.839844 11.425781 21.328125 12.03125 21.328125 L 22.96875 21.328125 C 23.574219 21.328125 24.0625 20.839844 24.0625 20.234375 L 24.0625 19.140625 C 24.0625 18.535156 23.574219 18.046875 22.96875 18.046875 L 12.03125 18.046875 C 11.425781 18.046875 10.9375 18.535156 10.9375 19.140625 Z M 17.5 28.515625 C 16.378906 28.515625 15.253906 28.167969 14.296875 27.476562 L 0 17.148438 L 0 31.71875 C 0 33.53125 1.46875 35 3.28125 35 L 31.71875 35 C 33.53125 35 35 33.53125 35 31.71875 L 35 17.148438 L 20.703125 27.476562 C 19.746094 28.167969 18.621094 28.515625 17.5 28.515625 Z M 33.742188 11.140625 C 33.136719 10.664062 32.5625 10.21875 31.71875 9.578125 L 31.71875 6.5625 C 31.71875 4.75 30.25 3.28125 28.4375 3.28125 L 23.136719 3.28125 C 22.929688 3.132812 22.734375 2.988281 22.519531 2.832031 C 21.367188 1.992188 19.085938 -0.0234375 17.5 0 C 15.914062 -0.0234375 13.632812 1.992188 12.480469 2.832031 C 12.265625 2.988281 12.070312 3.132812 11.863281 3.28125 L 6.5625 3.28125 C 4.75 3.28125 3.28125 4.75 3.28125 6.5625 L 3.28125 9.578125 C 2.4375 10.21875 1.863281 10.664062 1.257812 11.140625 C 0.464844 11.761719 0 12.714844 0 13.722656 L 0 14.449219 L 6.5625 19.191406 L 6.5625 6.5625 L 28.4375 6.5625 L 28.4375 19.191406 L 35 14.449219 L 35 13.722656 C 35 12.714844 34.535156 11.761719 33.742188 11.140625 Z M 33.742188 11.140625 "/>
</g>
</svg>
