<svg xmlns="http://www.w3.org/2000/svg" xmlns:xlink="http://www.w3.org/1999/xlink" width="35pt" height="35pt" viewBox="0 0 35 35" version="1.1">
<g id="surface1">
<path style=" stroke:none;fill-rule:nonzero;fill:#a3bbc8;fill-opacity:1;" d="M 20.78125 3.28125 C 20.78125 5.09375 19.3125 6.5625 17.5 6.5625 C 15.6875 6.5625 14.21875 5.09375 14.21875 3.28125 C 14.21875 1.46875 15.6875 0 17.5 0 C 19.3125 0 20.78125 1.46875 20.78125 3.28125 Z M 17.5 28.4375 C 15.6875 28.4375 14.21875 29.90625 14.21875 31.71875 C 14.21875 33.53125 15.6875 35 17.5 35 C 19.3125 35 20.78125 33.53125 20.78125 31.71875 C 20.78125 29.90625 19.3125 28.4375 17.5 28.4375 Z M 31.71875 14.21875 C 29.90625 14.21875 28.4375 15.6875 28.4375 17.5 C 28.4375 19.3125 29.90625 20.78125 31.71875 20.78125 C 33.53125 20.78125 35 19.3125 35 17.5 C 35 15.6875 33.53125 14.21875 31.71875 14.21875 Z M 6.5625 17.5 C 6.5625 15.6875 5.09375 14.21875 3.28125 14.21875 C 1.46875 14.21875 0 15.6875 0 17.5 C 0 19.3125 1.46875 20.78125 3.28125 20.78125 C 5.09375 20.78125 6.5625 19.3125 6.5625 17.5 Z M 7.445312 24.273438 C 5.632812 24.273438 4.164062 25.742188 4.164062 27.554688 C 4.164062 29.367188 5.632812 30.835938 7.445312 30.835938 C 9.257812 30.835938 10.726562 29.367188 10.726562 27.554688 C 10.726562 25.742188 9.257812 24.273438 7.445312 24.273438 Z M 27.554688 24.273438 C 25.742188 24.273438 24.273438 25.742188 24.273438 27.554688 C 24.273438 29.367188 25.742188 30.835938 27.554688 30.835938 C 29.367188 30.835938 30.835938 29.367188 30.835938 27.554688 C 30.835938 25.742188 29.367188 24.273438 27.554688 24.273438 Z M 7.445312 4.164062 C 5.632812 4.164062 4.164062 5.632812 4.164062 7.445312 C 4.164062 9.257812 5.632812 10.726562 7.445312 10.726562 C 9.257812 10.726562 10.726562 9.257812 10.726562 7.445312 C 10.726562 5.632812 9.257812 4.164062 7.445312 4.164062 Z M 7.445312 4.164062 "/>
</g>
</svg>
