<?xml version="1.0" encoding="UTF-8"?>
<svg xmlns="http://www.w3.org/2000/svg" xmlns:xlink="http://www.w3.org/1999/xlink" width="6pt" height="9pt" viewBox="0 0 6 9" version="1.1">
<g id="surface1">
<path style=" stroke:none;fill-rule:nonzero;fill:#243f4d;fill-opacity:1;" d="M 2.679688 4.503906 L 0.132812 2.113281 C -0.046875 1.949219 -0.046875 1.683594 0.132812 1.519531 L 0.554688 1.121094 C 0.730469 0.957031 1.015625 0.957031 1.191406 1.121094 L 3 2.816406 L 4.804688 1.121094 C 4.980469 0.957031 5.265625 0.957031 5.441406 1.121094 L 5.867188 1.515625 C 6.046875 1.683594 6.046875 1.949219 5.867188 2.113281 L 3.320312 4.503906 C 3.140625 4.671875 2.859375 4.671875 2.679688 4.503906 Z M 3.320312 7.878906 L 5.867188 5.488281 C 6.046875 5.324219 6.046875 5.058594 5.867188 4.894531 L 5.445312 4.496094 C 5.269531 4.332031 4.984375 4.332031 4.808594 4.496094 L 3 6.1875 L 1.191406 4.496094 C 1.015625 4.328125 0.730469 4.328125 0.558594 4.496094 L 0.132812 4.890625 C -0.046875 5.058594 -0.046875 5.324219 0.132812 5.488281 L 2.679688 7.878906 C 2.859375 8.046875 3.140625 8.046875 3.320312 7.878906 Z M 3.320312 7.878906 "/>
</g>
</svg>
