<svg xmlns="http://www.w3.org/2000/svg" xmlns:xlink="http://www.w3.org/1999/xlink" width="34pt" height="31pt" viewBox="0 0 34 31" version="1.1">
<g id="surface1">
<path style=" stroke:none;fill-rule:nonzero;fill:#a3bbc8;fill-opacity:1;" d="M 17 0 C 12.890625 0 9.5625 3.414062 9.5625 7.628906 C 9.5625 11.035156 14.421875 17.242188 16.285156 19.496094 C 16.664062 19.953125 17.335938 19.953125 17.714844 19.496094 C 19.578125 17.242188 24.4375 11.035156 24.4375 7.628906 C 24.4375 3.414062 21.109375 0 17 0 Z M 17 10.171875 C 15.628906 10.171875 14.519531 9.035156 14.519531 7.628906 C 14.519531 6.222656 15.628906 5.085938 17 5.085938 C 18.371094 5.085938 19.480469 6.222656 19.480469 7.628906 C 19.480469 9.035156 18.371094 10.171875 17 10.171875 Z M 1.1875 13.074219 C 0.46875 13.371094 0 14.082031 0 14.875 L 0 30.03125 C 0 30.714844 0.675781 31.183594 1.296875 30.929688 L 9.445312 27.125 L 9.445312 13.011719 C 8.921875 12.046875 8.496094 11.101562 8.191406 10.203125 Z M 17 21.777344 C 16.167969 21.777344 15.382812 21.402344 14.84375 20.75 C 13.683594 19.34375 12.449219 17.746094 11.332031 16.105469 L 11.332031 27.125 L 22.667969 31 L 22.667969 16.105469 C 21.550781 17.746094 20.316406 19.347656 19.15625 20.75 C 18.617188 21.402344 17.832031 21.777344 17 21.777344 Z M 32.703125 9.757812 L 24.554688 13.5625 L 24.554688 31 L 32.8125 27.613281 C 33.53125 27.316406 34 26.605469 34 25.8125 L 34 10.65625 C 34 9.972656 33.324219 9.503906 32.703125 9.757812 Z M 32.703125 9.757812 "/>
</g>
</svg>
