<svg xmlns="http://www.w3.org/2000/svg" xmlns:xlink="http://www.w3.org/1999/xlink" width="15pt" height="15pt" viewBox="0 0 13 13" version="1.1">
<path stroke="none" fill-rule="nonzero" fill="#a1a1a1" fill-opacity="1" d="M 11.664062 3.851562 C 11.671875 3.96875 11.671875 4.082031 11.671875 4.199219 C 11.671875 7.722656 8.992188 11.777344 4.089844 11.777344 C 2.582031 11.777344 1.179688 11.34375 0 10.582031 C 0.214844 10.609375 0.421875 10.617188 0.644531 10.617188 C 1.890625 10.617188 3.035156 10.195312 3.949219 9.476562 C 2.78125 9.453125 1.796875 8.6875 1.460938 7.628906 C 1.625 7.65625 1.789062 7.671875 1.964844 7.671875 C 2.203125 7.671875 2.441406 7.636719 2.664062 7.582031 C 1.445312 7.332031 0.527344 6.261719 0.527344 4.964844 L 0.527344 4.933594 C 0.882812 5.128906 1.296875 5.253906 1.730469 5.269531 C 1.015625 4.792969 0.542969 3.976562 0.542969 3.050781 C 0.542969 2.558594 0.675781 2.101562 0.90625 1.707031 C 2.21875 3.324219 4.191406 4.378906 6.402344 4.496094 C 6.359375 4.296875 6.335938 4.089844 6.335938 3.886719 C 6.335938 2.417969 7.523438 1.222656 9 1.222656 C 9.765625 1.222656 10.460938 1.542969 10.945312 2.0625 C 11.546875 1.945312 12.125 1.722656 12.636719 1.417969 C 12.4375 2.039062 12.019531 2.558594 11.464844 2.886719 C 12 2.828125 12.523438 2.679688 13 2.476562 C 12.636719 3.003906 12.183594 3.472656 11.664062 3.851562 Z M 11.664062 3.851562 "/>
</svg>
